<svg xmlns="http://www.w3.org/2000/svg" width="384" height="64" viewBox="0 0 384 64" shape-rendering="crispEdges">
  <g id="waterfall_lip_foam" transform="translate(0 0)">
    <path d="M4 38h8v-5h8v3h8v-7h8v5h8v-3h8v7h8v7H4z" fill="#dff8f4" fill-opacity=".9"/>
    <path d="M8 44h44v5H8z" fill="#8fd8df" fill-opacity=".65"/>
    <path d="M16 27h7v5h-7zm24-3h8v6h-8z" fill="#f2fffb"/>
  </g>
  <g id="impact_foam" transform="translate(64 0)">
    <ellipse cx="32" cy="40" rx="27" ry="10" fill="#dff8f4" fill-opacity=".82"/>
    <ellipse cx="32" cy="40" rx="18" ry="5" fill="#f4fffd" fill-opacity=".92"/>
    <rect x="9" y="49" width="46" height="4" fill="#79cbd8" fill-opacity=".6"/>
    <rect x="19" y="28" width="6" height="6" fill="#edfefa"/>
    <rect x="41" y="25" width="5" height="7" fill="#edfefa"/>
  </g>
  <g id="mist_cloud" transform="translate(128 0)">
    <ellipse cx="22" cy="36" rx="18" ry="11" fill="#d7f4ef" fill-opacity=".38"/>
    <ellipse cx="39" cy="32" rx="20" ry="13" fill="#e9fbf7" fill-opacity=".34"/>
    <ellipse cx="48" cy="42" rx="12" ry="8" fill="#bfe7e6" fill-opacity=".28"/>
  </g>
  <g id="side_splash_left" transform="translate(192 0)">
    <path d="M52 50h-8v-7h-6v-8h-6v-9h-7v-8h-6v14h5v10h7v8h8v6h13z" fill="#dff8f4" fill-opacity=".82"/>
    <rect x="12" y="23" width="5" height="8" fill="#f4fffd"/>
    <rect x="7" y="35" width="4" height="6" fill="#c6eceb"/>
  </g>
  <g id="side_splash_right" transform="translate(256 0)">
    <path d="M12 50h8v-7h6v-8h6v-9h7v-8h6v14h-5v10h-7v8h-8v6H12z" fill="#dff8f4" fill-opacity=".82"/>
    <rect x="47" y="23" width="5" height="8" fill="#f4fffd"/>
    <rect x="53" y="35" width="4" height="6" fill="#c6eceb"/>
  </g>
  <g id="river_ripple" transform="translate(320 0)">
    <rect x="8" y="28" width="48" height="4" fill="#8fd8df" fill-opacity=".72"/>
    <rect x="15" y="36" width="34" height="3" fill="#dff8f4" fill-opacity=".58"/>
    <rect x="23" y="44" width="20" height="3" fill="#75c6d2" fill-opacity=".58"/>
  </g>
</svg>
