<svg xmlns="http://www.w3.org/2000/svg" width="480" height="96" viewBox="0 0 480 96" shape-rendering="crispEdges">
  <rect width="480" height="96" fill="none"/>
  <g id="carpenter" transform="translate(0 0)">
    <ellipse cx="48" cy="87" rx="20" ry="5" fill="#24382f" opacity=".35"/>
    <rect x="34" y="26" width="28" height="24" fill="#d79b55"/><rect x="38" y="30" width="4" height="4" fill="#2b211b"/><rect x="54" y="30" width="4" height="4" fill="#2b211b"/>
    <rect x="30" y="20" width="36" height="8" fill="#75502e"/><rect x="34" y="15" width="28" height="7" fill="#9b6a39"/>
    <rect x="31" y="50" width="34" height="24" fill="#7b4d2d"/><rect x="34" y="54" width="28" height="7" fill="#d18b42"/>
    <rect x="34" y="74" width="10" height="12" fill="#293d4e"/><rect x="52" y="74" width="10" height="12" fill="#293d4e"/>
    <rect x="65" y="53" width="5" height="24" fill="#8d6338"/><rect x="62" y="50" width="11" height="5" fill="#b6bec2"/>
  </g>
  <g id="farmer" transform="translate(96 0)">
    <ellipse cx="48" cy="87" rx="20" ry="5" fill="#24382f" opacity=".35"/>
    <rect x="34" y="27" width="28" height="23" fill="#c9874f"/><rect x="38" y="31" width="4" height="4" fill="#2b211b"/><rect x="54" y="31" width="4" height="4" fill="#2b211b"/>
    <path d="M27 25 L48 10 L69 25 Z" fill="#c69b48"/><rect x="23" y="24" width="50" height="5" fill="#a77a32"/>
    <rect x="31" y="50" width="34" height="24" fill="#4f7b48"/><rect x="35" y="53" width="26" height="7" fill="#d4b65f"/>
    <rect x="34" y="74" width="10" height="12" fill="#4a3c2e"/><rect x="52" y="74" width="10" height="12" fill="#4a3c2e"/>
    <rect x="68" y="51" width="4" height="28" fill="#77512d"/><path d="M64 78 L76 78 L72 84 L66 84 Z" fill="#9da8aa"/>
  </g>
  <g id="merchant" transform="translate(192 0)">
    <ellipse cx="48" cy="87" rx="20" ry="5" fill="#24382f" opacity=".35"/>
    <rect x="34" y="26" width="28" height="24" fill="#dca05d"/><rect x="38" y="30" width="4" height="4" fill="#2b211b"/><rect x="54" y="30" width="4" height="4" fill="#2b211b"/>
    <rect x="32" y="18" width="32" height="9" fill="#4f2f29"/><rect x="37" y="13" width="22" height="7" fill="#6d3c34"/>
    <rect x="29" y="50" width="38" height="24" fill="#9a3f36"/><rect x="34" y="54" width="28" height="7" fill="#e0ad4f"/>
    <rect x="34" y="74" width="10" height="12" fill="#30364d"/><rect x="52" y="74" width="10" height="12" fill="#30364d"/>
    <rect x="68" y="57" width="13" height="15" fill="#a97739"/><rect x="70" y="54" width="9" height="4" fill="#d6a650"/>
  </g>
  <g id="elder" transform="translate(288 0)">
    <ellipse cx="48" cy="87" rx="20" ry="5" fill="#24382f" opacity=".35"/>
    <rect x="34" y="27" width="28" height="23" fill="#c98b58"/><rect x="38" y="31" width="4" height="4" fill="#2b211b"/><rect x="54" y="31" width="4" height="4" fill="#2b211b"/>
    <rect x="34" y="17" width="28" height="11" fill="#d7d2c2"/><rect x="30" y="21" width="8" height="11" fill="#d7d2c2"/><rect x="58" y="21" width="8" height="11" fill="#d7d2c2"/>
    <rect x="31" y="50" width="34" height="24" fill="#5c6576"/><rect x="34" y="54" width="28" height="7" fill="#8394a3"/>
    <rect x="34" y="74" width="10" height="12" fill="#3f403f"/><rect x="52" y="74" width="10" height="12" fill="#3f403f"/>
    <rect x="69" y="48" width="4" height="37" fill="#704e2c"/><rect x="66" y="47" width="10" height="4" fill="#8c6539"/>
  </g>
  <g id="child" transform="translate(384 0)">
    <ellipse cx="48" cy="87" rx="16" ry="4" fill="#24382f" opacity=".35"/>
    <rect x="36" y="32" width="24" height="20" fill="#dda15b"/><rect x="39" y="36" width="4" height="4" fill="#2b211b"/><rect x="53" y="36" width="4" height="4" fill="#2b211b"/>
    <rect x="35" y="25" width="26" height="8" fill="#3f3026"/><rect x="32" y="29" width="7" height="10" fill="#3f3026"/>
    <rect x="34" y="52" width="28" height="20" fill="#d28b34"/><rect x="38" y="55" width="20" height="6" fill="#f0c95f"/>
    <rect x="37" y="72" width="8" height="12" fill="#3b5872"/><rect x="51" y="72" width="8" height="12" fill="#3b5872"/>
    <rect x="63" y="58" width="10" height="10" fill="#d94e4e"/>
  </g>
</svg>