<svg xmlns="http://www.w3.org/2000/svg" width="256" height="256" viewBox="0 0 256 256" shape-rendering="crispEdges">
  <defs>
    <style>
      .o{fill:#231c18}.sd{fill:#2d2622;fill-opacity:.55}.wd{fill:#5c3721}.w{fill:#8e5730}.wl{fill:#c48143}
      .st{fill:#697574}.stl{fill:#9ba6a0}.g{fill:#dca641}.gr{fill:#579146}.gr2{fill:#66a24f}
      .sack{fill:#b8925d}.sack2{fill:#d2b079}.water{fill:#2f7fa8;fill-opacity:.34}.foam{fill:#8ed6ec;fill-opacity:.8}
    </style>
  </defs>

  <!-- BV_BRIDGE_DECK_PLANKS_01 -->
  <g id="BV_BRIDGE_DECK_PLANKS_01">
    <rect class="sd" x="8" y="34" width="112" height="14"/>
    <rect class="o" x="8" y="12" width="112" height="30"/>
    <rect class="w" x="12" y="16" width="104" height="22"/>
    <g class="wl">
      <rect x="14" y="18" width="12" height="18"/><rect x="30" y="18" width="12" height="18"/>
      <rect x="46" y="18" width="12" height="18"/><rect x="62" y="18" width="12" height="18"/>
      <rect x="78" y="18" width="12" height="18"/><rect x="94" y="18" width="12" height="18"/>
    </g>
    <path d="M28 16v22M44 16v22M60 16v22M76 16v22M92 16v22" stroke="#5c3721" stroke-width="3"/>
  </g>

  <!-- BV_BRIDGE_SUPPORT_POST_01 -->
  <g id="BV_BRIDGE_SUPPORT_POST_01">
    <rect class="sd" x="132" y="48" width="40" height="8"/>
    <rect class="o" x="142" y="8" width="14" height="44"/>
    <rect class="wd" x="146" y="12" width="6" height="36"/>
    <rect class="wl" x="147" y="12" width="3" height="30"/>
    <rect class="o" x="136" y="10" width="26" height="8"/>
    <rect class="w" x="140" y="12" width="18" height="4"/>
  </g>

  <!-- BV_BRIDGE_WATER_SHADOW_01 -->
  <g id="BV_BRIDGE_WATER_SHADOW_01">
    <rect class="water" x="176" y="12" width="72" height="36"/>
    <rect class="water" x="182" y="16" width="60" height="28"/>
    <path class="foam" d="M180 18h16v3h-16zM204 28h24v3h-24zM188 39h18v3h-18z"/>
  </g>

  <!-- BV_WOOD_PILE_01 -->
  <g id="BV_WOOD_PILE_01">
    <rect class="sd" x="10" y="106" width="82" height="10"/>
    <g>
      <rect class="o" x="12" y="86" width="68" height="18"/>
      <rect class="w" x="16" y="89" width="60" height="12"/>
      <circle class="wl" cx="20" cy="95" r="4"/><circle class="wl" cx="34" cy="95" r="4"/>
      <circle class="wl" cx="48" cy="95" r="4"/><circle class="wl" cx="62" cy="95" r="4"/>
      <rect class="o" x="24" y="74" width="58" height="16"/>
      <rect class="wd" x="28" y="77" width="50" height="10"/>
      <circle class="wl" cx="32" cy="82" r="3"/><circle class="wl" cx="46" cy="82" r="3"/>
      <circle class="wl" cx="60" cy="82" r="3"/><circle class="wl" cx="74" cy="82" r="3"/>
    </g>
  </g>

  <!-- BV_TOOL_RACK_01 -->
  <g id="BV_TOOL_RACK_01">
    <rect class="sd" x="108" y="110" width="60" height="8"/>
    <rect class="o" x="114" y="72" width="8" height="40"/><rect class="o" x="154" y="72" width="8" height="40"/>
    <rect class="w" x="118" y="76" width="40" height="8"/>
    <rect class="w" x="118" y="94" width="40" height="8"/>
    <rect class="g" x="128" y="66" width="6" height="24"/>
    <rect class="stl" x="126" y="64" width="10" height="5"/>
    <rect class="st" x="144" y="68" width="5" height="25"/>
    <rect class="stl" x="140" y="66" width="13" height="5"/>
  </g>

  <!-- BV_MATERIAL_SACK_01 -->
  <g id="BV_MATERIAL_SACK_01">
    <rect class="sd" x="180" y="108" width="50" height="8"/>
    <path class="o" d="M192 74h26l8 12-4 22h-36l-4-22z"/>
    <path class="sack" d="M195 78h20l7 10-4 16h-28l-4-16z"/>
    <rect class="sack2" x="199" y="82" width="12" height="5"/>
    <rect class="wd" x="196" y="72" width="18" height="5"/>
  </g>

  <!-- BV_BUSH_FOREGROUND_01 -->
  <g id="BV_BUSH_FOREGROUND_01">
    <rect class="sd" x="8" y="184" width="90" height="12"/>
    <circle class="gr" cx="28" cy="172" r="18"/><circle class="gr2" cx="46" cy="166" r="22"/>
    <circle class="gr" cx="68" cy="174" r="19"/><circle class="gr2" cx="82" cy="164" r="15"/>
    <rect class="wd" x="44" y="178" width="8" height="14"/>
  </g>

  <!-- BV_SMALL_ROCK_DEBRIS_01 -->
  <g id="BV_SMALL_ROCK_DEBRIS_01">
    <rect class="sd" x="116" y="188" width="58" height="8"/>
    <rect class="o" x="122" y="174" width="20" height="14"/>
    <rect class="st" x="126" y="176" width="14" height="8"/>
    <rect class="o" x="148" y="180" width="14" height="10"/>
    <rect class="stl" x="151" y="182" width="8" height="5"/>
    <rect class="o" x="166" y="172" width="10" height="8"/>
    <rect class="st" x="168" y="174" width="6" height="4"/>
  </g>

  <!-- BV_WATER_SPARKLE_01 -->
  <g id="BV_WATER_SPARKLE_01">
    <path class="foam" d="M194 164h18v3h-18zM222 176h20v3h-20zM202 188h13v3h-13zM230 154h12v3h-12z"/>
    <rect class="foam" x="214" y="158" width="3" height="10"/><rect class="foam" x="210" y="162" width="11" height="3"/>
  </g>
</svg>