<svg xmlns="http://www.w3.org/2000/svg" width="128" height="32" viewBox="0 0 128 32" shape-rendering="crispEdges">
  <!--
    Production water-detail spritesheet.

    Every 32x32 frame is intentionally transparent. The continuous authored
    river remains the water silhouette and color authority; these frames add
    only bounded highlights, currents and foam accents. Keeping frame
    backgrounds transparent prevents scaled sprites from appearing as visible
    rectangular panels outside the river corridor.
  -->
  <g id="frame-0">
    <rect x="3" y="5" width="15" height="2" fill="#b6e8e9" opacity=".55"/>
    <rect x="19" y="12" width="10" height="2" fill="#8dd2da" opacity=".45"/>
    <rect x="6" y="22" width="18" height="2" fill="#d8f4f1" opacity=".28"/>
    <rect x="1" y="29" width="12" height="1" fill="#7fc2cf" opacity=".26"/>
  </g>
  <g id="frame-1">
    <rect x="39" y="5" width="15" height="2" fill="#b6e8e9" opacity=".55"/>
    <rect x="33" y="13" width="10" height="2" fill="#8dd2da" opacity=".45"/>
    <rect x="45" y="22" width="18" height="2" fill="#d8f4f1" opacity=".28"/>
    <rect x="50" y="29" width="12" height="1" fill="#7fc2cf" opacity=".26"/>
  </g>
  <g id="frame-2">
    <rect x="77" y="5" width="15" height="2" fill="#b6e8e9" opacity=".55"/>
    <rect x="67" y="12" width="10" height="2" fill="#8dd2da" opacity=".45"/>
    <rect x="70" y="23" width="18" height="2" fill="#d8f4f1" opacity=".28"/>
    <rect x="65" y="29" width="12" height="1" fill="#7fc2cf" opacity=".26"/>
  </g>
  <g id="frame-3">
    <rect x="98" y="6" width="15" height="2" fill="#b6e8e9" opacity=".55"/>
    <rect x="115" y="13" width="10" height="2" fill="#8dd2da" opacity=".45"/>
    <rect x="105" y="22" width="18" height="2" fill="#d8f4f1" opacity=".28"/>
    <rect x="114" y="29" width="12" height="1" fill="#7fc2cf" opacity=".26"/>
  </g>
</svg>
