<svg xmlns="http://www.w3.org/2000/svg" width="128" height="32" viewBox="0 0 128 32" shape-rendering="crispEdges">
  <defs>
    <linearGradient id="waterA" x1="0" y1="0" x2="0" y2="1">
      <stop offset="0" stop-color="#55b3c5"/>
      <stop offset="0.45" stop-color="#267f9c"/>
      <stop offset="1" stop-color="#15536f"/>
    </linearGradient>
    <linearGradient id="waterB" x1="0" y1="0" x2="0" y2="1">
      <stop offset="0" stop-color="#63bdca"/>
      <stop offset="0.45" stop-color="#2a87a2"/>
      <stop offset="1" stop-color="#164f6c"/>
    </linearGradient>
  </defs>
  <g id="frame-0">
    <rect x="0" y="0" width="32" height="32" fill="url(#waterA)"/>
    <rect x="3" y="5" width="15" height="2" fill="#b6e8e9" opacity=".55"/>
    <rect x="19" y="12" width="10" height="2" fill="#8dd2da" opacity=".5"/>
    <rect x="6" y="22" width="18" height="2" fill="#d8f4f1" opacity=".28"/>
    <rect x="1" y="29" width="12" height="1" fill="#0f455f" opacity=".5"/>
  </g>
  <g id="frame-1">
    <rect x="32" y="0" width="32" height="32" fill="url(#waterB)"/>
    <rect x="39" y="5" width="15" height="2" fill="#b6e8e9" opacity=".55"/>
    <rect x="33" y="13" width="10" height="2" fill="#8dd2da" opacity=".5"/>
    <rect x="45" y="22" width="18" height="2" fill="#d8f4f1" opacity=".28"/>
    <rect x="50" y="29" width="12" height="1" fill="#0f455f" opacity=".5"/>
  </g>
  <g id="frame-2">
    <rect x="64" y="0" width="32" height="32" fill="url(#waterA)"/>
    <rect x="77" y="5" width="15" height="2" fill="#b6e8e9" opacity=".55"/>
    <rect x="67" y="12" width="10" height="2" fill="#8dd2da" opacity=".5"/>
    <rect x="70" y="23" width="18" height="2" fill="#d8f4f1" opacity=".28"/>
    <rect x="65" y="29" width="12" height="1" fill="#0f455f" opacity=".5"/>
  </g>
  <g id="frame-3">
    <rect x="96" y="0" width="32" height="32" fill="url(#waterB)"/>
    <rect x="98" y="6" width="15" height="2" fill="#b6e8e9" opacity=".55"/>
    <rect x="115" y="13" width="10" height="2" fill="#8dd2da" opacity=".5"/>
    <rect x="105" y="22" width="18" height="2" fill="#d8f4f1" opacity=".28"/>
    <rect x="114" y="29" width="12" height="1" fill="#0f455f" opacity=".5"/>
  </g>
</svg>
