<svg xmlns="http://www.w3.org/2000/svg" width="512" height="128" viewBox="0 0 512 128" shape-rendering="crispEdges"><rect width="512" height="128" fill="none"/><g transform="translate(0)"><path d="M32 104l12-38 8 38 12-48 9 48 13-34 8 34" stroke="#477d35" stroke-width="7" fill="none"/><path d="M40 102l-7-22M74 100l9-24" stroke="#6fa34a" stroke-width="5"/></g><g transform="translate(128)"><circle cx="45" cy="78" r="7" fill="#e65d7a"/><circle cx="66" cy="65" r="7" fill="#f0d85b"/><circle cx="84" cy="83" r="7" fill="#8bc3ef"/><path d="M45 85v22M66 72v35M84 90v17" stroke="#4f7f39" stroke-width="5"/></g><g transform="translate(256)"><ellipse cx="64" cy="102" rx="42" ry="9" fill="#806847" opacity=".25"/><circle cx="38" cy="90" r="8" fill="#74756f"/><circle cx="58" cy="82" r="10" fill="#85867e"/><circle cx="80" cy="92" r="7" fill="#666861"/><circle cx="95" cy="80" r="5" fill="#98998f"/></g><g transform="translate(384)"><path d="M26 84c20-14 30 18 50 4s28 12 32 18" fill="none" stroke="#8c6339" stroke-width="7"/><path d="M32 96l18-12M54 103l22-13M78 106l18-12" stroke="#b78b54" stroke-width="4"/></g></svg>