<svg xmlns="http://www.w3.org/2000/svg" width="512" height="128" viewBox="0 0 512 128" shape-rendering="crispEdges"><rect width="512" height="128" fill="none"/><g transform="translate(0)"><ellipse cx="64" cy="110" rx="32" ry="7" fill="#5d7044" opacity=".35"/><ellipse cx="64" cy="72" rx="28" ry="34" fill="#9b5a2f"/><rect x="44" y="40" width="40" height="18" rx="8" fill="#c47b42"/><rect x="48" y="46" width="32" height="6" fill="#e0a15c"/></g><g transform="translate(128)"><ellipse cx="64" cy="110" rx="34" ry="7" fill="#5d7044" opacity=".35"/><path d="M35 50h58l-7 56H42z" fill="#b88749"/><path d="M39 55h50M42 68h44M44 82h40M47 96h34" stroke="#e0ba76" stroke-width="5"/><path d="M45 46q19-18 38 0" fill="none" stroke="#6c4526" stroke-width="6"/></g><g transform="translate(256)"><ellipse cx="64" cy="110" rx="34" ry="7" fill="#5d7044" opacity=".35"/><ellipse cx="64" cy="74" rx="31" ry="24" fill="#5c5b58"/><ellipse cx="64" cy="65" rx="26" ry="13" fill="#2f3334"/><circle cx="58" cy="62" r="5" fill="#d9412e"/><circle cx="68" cy="58" r="5" fill="#65a84d"/><path d="M85 40l-15 44" stroke="#4b4a47" stroke-width="10" stroke-linecap="round"/></g><g transform="translate(384)"><ellipse cx="64" cy="110" rx="38" ry="7" fill="#5d7044" opacity=".35"/><rect x="24" y="44" width="80" height="54" rx="8" fill="#b9823f"/><path d="M28 50h72M28 64h72M28 78h72M28 92h72" stroke="#e1b76a" stroke-width="4"/><path d="M38 44q26-26 52 0" fill="none" stroke="#6a4625" stroke-width="7"/></g></svg>