<svg xmlns="http://www.w3.org/2000/svg" width="512" height="128" viewBox="0 0 512 128" shape-rendering="crispEdges"><rect width="512" height="128" fill="none"/><g transform="translate(0)"><path d="M34 108l8-48 8 48 10-62 8 62 11-54 9 54" stroke="#4f7f42" stroke-width="6"/><path d="M39 63l-8-9M60 51l10-10M80 61l10-8" stroke="#799d55" stroke-width="4"/></g><g transform="translate(128)"><ellipse cx="64" cy="90" rx="40" ry="15" fill="#4f8d59"/><ellipse cx="50" cy="80" rx="21" ry="11" fill="#70a96c"/><circle cx="72" cy="71" r="8" fill="#ef9db4"/><circle cx="72" cy="71" r="3" fill="#f7d46a"/></g><g transform="translate(256)"><ellipse cx="64" cy="104" rx="42" ry="9" fill="#3c6d5e" opacity=".3"/><path d="M30 100q18-42 38-8t31-20" fill="none" stroke="#6c5035" stroke-width="9"/><path d="M50 87l-12-14M79 84l14-17" stroke="#8a6845" stroke-width="5"/></g><g transform="translate(384)"><ellipse cx="64" cy="102" rx="42" ry="8" fill="#3c6d5e" opacity=".3"/><circle cx="42" cy="89" r="13" fill="#6f7874"/><circle cx="65" cy="81" r="16" fill="#858d88"/><circle cx="91" cy="91" r="11" fill="#68716d"/><path d="M34 82q18-16 37 0M61 73q16-13 31 1" fill="none" stroke="#5e8c53" stroke-width="5"/></g></svg>