<svg xmlns="http://www.w3.org/2000/svg" width="512" height="128" viewBox="0 0 512 128" shape-rendering="crispEdges"><rect width="512" height="128" fill="none"/><g transform="translate(0)"><ellipse cx="64" cy="108" rx="40" ry="8" fill="#5e7046" opacity=".3"/><rect x="32" y="58" width="64" height="40" fill="#7b4e2c"/><rect x="38" y="50" width="52" height="13" fill="#a56a37"/><path d="M40 70h48M40 82h48" stroke="#d09a56" stroke-width="5"/><circle cx="48" cy="102" r="8" fill="#44301f"/><circle cx="82" cy="102" r="8" fill="#44301f"/></g><g transform="translate(128)"><ellipse cx="64" cy="108" rx="40" ry="8" fill="#5e7046" opacity=".3"/><rect x="28" y="48" width="72" height="50" rx="4" fill="#b58a58"/><path d="M34 58h60M34 70h60M34 82h60M46 48v50M64 48v50M82 48v50" stroke="#e3c58a" stroke-width="4"/><path d="M38 44q26-22 52 0" fill="none" stroke="#715032" stroke-width="6"/></g><g transform="translate(256)"><ellipse cx="64" cy="108" rx="43" ry="8" fill="#5e7046" opacity=".3"/><rect x="30" y="62" width="68" height="32" fill="#7b5030"/><rect x="36" y="54" width="56" height="12" fill="#c28a49"/><path d="M40 74h48M40 86h48" stroke="#e0b16b" stroke-width="5"/><path d="M48 54v-20M80 54v-20" stroke="#604126" stroke-width="6"/><path d="M43 34h42" stroke="#d8d0b2" stroke-width="5"/><path d="M50 34l8 15 8-15 8 15" fill="none" stroke="#d85b5b" stroke-width="4"/></g><g transform="translate(384)"><ellipse cx="64" cy="108" rx="42" ry="8" fill="#5e7046" opacity=".3"/><path d="M30 92h68l-10-42H40z" fill="#d1aa55"/><path d="M38 82h52M42 68h44M48 54h32" stroke="#edcf7a" stroke-width="6"/><path d="M42 48q22-24 44 0" fill="none" stroke="#8a6232" stroke-width="6"/></g></svg>