<svg xmlns="http://www.w3.org/2000/svg" width="416" height="32" viewBox="0 0 416 32" shape-rendering="crispEdges">
<rect width="416" height="32" fill="none"/>
<!-- grass_base_01 -->
<g transform="translate(0 0)"><rect width="32" height="32" fill="#5f9b4f"/><rect x="5" y="6" width="3" height="2" fill="#78ad5d"/><rect x="21" y="17" width="2" height="3" fill="#467f43"/><rect x="12" y="26" width="4" height="2" fill="#6aa454"/></g>
<!-- grass_base_02 -->
<g transform="translate(32 0)"><rect width="32" height="32" fill="#639e51"/><rect x="4" y="20" width="4" height="2" fill="#7caf61"/><rect x="18" y="7" width="2" height="4" fill="#477f44"/><rect x="25" y="25" width="3" height="2" fill="#6fa858"/></g>
<!-- grass_edge_n -->
<g transform="translate(64 0)"><rect width="32" height="32" fill="#5f9b4f"/><rect y="0" width="32" height="7" fill="#8a7950"/><rect y="6" width="32" height="3" fill="#a9905e"/><rect x="5" y="8" width="4" height="2" fill="#76aa5a"/></g>
<!-- grass_edge_s -->
<g transform="translate(96 0)"><rect width="32" height="32" fill="#5f9b4f"/><rect y="25" width="32" height="7" fill="#776745"/><rect y="23" width="32" height="3" fill="#a9905e"/></g>
<!-- grass_edge_e -->
<g transform="translate(128 0)"><rect width="32" height="32" fill="#5f9b4f"/><rect x="25" width="7" height="32" fill="#806e49"/><rect x="23" width="3" height="32" fill="#aa925f"/></g>
<!-- grass_edge_w -->
<g transform="translate(160 0)"><rect width="32" height="32" fill="#5f9b4f"/><rect width="7" height="32" fill="#806e49"/><rect x="6" width="3" height="32" fill="#aa925f"/></g>
<!-- dirt_base_01 -->
<g transform="translate(192 0)"><rect width="32" height="32" fill="#9b8156"/><rect x="4" y="5" width="3" height="2" fill="#b79a68"/><rect x="17" y="12" width="4" height="2" fill="#735f42"/><rect x="25" y="25" width="2" height="2" fill="#c0a171"/></g>
<!-- dirt_worn_01 -->
<g transform="translate(224 0)"><rect width="32" height="32" fill="#a48b5f"/><rect x="0" y="12" width="32" height="8" fill="#b9a070"/><rect x="7" y="14" width="8" height="2" fill="#806a49"/><rect x="20" y="18" width="6" height="2" fill="#d0b47b"/></g>
<!-- path_center_01 -->
<g transform="translate(256 0)"><rect width="32" height="32" fill="#729f54"/><rect x="6" width="20" height="32" fill="#b29b68"/><rect x="9" width="14" height="32" fill="#c2aa74"/><rect x="12" y="8" width="8" height="2" fill="#8d774f"/></g>
<!-- path_edge_left -->
<g transform="translate(288 0)"><rect width="32" height="32" fill="#60994f"/><rect x="13" width="19" height="32" fill="#b39b69"/><rect x="17" width="15" height="32" fill="#c3aa74"/></g>
<!-- path_edge_right -->
<g transform="translate(320 0)"><rect width="32" height="32" fill="#60994f"/><rect width="19" height="32" fill="#b39b69"/><rect width="15" height="32" fill="#c3aa74"/></g>
<!-- stone_terrace_01 -->
<g transform="translate(352 0)"><rect width="32" height="32" fill="#68716b"/><rect x="1" y="1" width="14" height="14" fill="#89918a"/><rect x="17" y="1" width="14" height="14" fill="#77807a"/><rect x="1" y="17" width="14" height="14" fill="#747d77"/><rect x="17" y="17" width="14" height="14" fill="#90978f"/><path d="M0 16h32M16 0v32" stroke="#444d49" stroke-width="2"/></g>
<!-- wet_ground_01 -->
<g transform="translate(384 0)"><rect width="32" height="32" fill="#687b59"/><rect x="2" y="4" width="28" height="24" fill="#75896b"/><rect x="5" y="22" width="18" height="3" fill="#86aaa0"/><rect x="20" y="8" width="7" height="2" fill="#8fa59a"/></g>
</svg>